<svg  xmlns="http://www.w3.org/2000/svg" width="128" height="128"  
fill="currentColor" viewBox="0 0 24 24" >
<!--Boxicons v3.0 https://boxicons.com | License  https://docs.boxicons.com/free-->
<path d="M5 5A2 2 0 1 0 5 9 2 2 0 1 0 5 5z"></path><path d="m19.5,10h-.7c-.84,0-1.61.42-2.08,1.11l-3.26,4.89h-2.93l-3.26-4.89c-.46-.7-1.24-1.11-2.08-1.11h-.7c-1.38,0-2.5,1.12-2.5,2.5v5.5h5v-3.7l1.87,2.81c.37.56.99.89,1.66.89h2.93c.67,0,1.29-.33,1.66-.89l1.87-2.81v3.7h5v-5.5c0-1.38-1.12-2.5-2.5-2.5Z"></path><path d="M19 5A2 2 0 1 0 19 9 2 2 0 1 0 19 5z"></path>
</svg>